{
	"asset":{
		"generator":"Khronos glTF Blender I/O v5.1.19",
		"version":"2.0"
	},
	"scene":0,
	"scenes":[
		{
			"name":"Scene",
			"nodes":[
				0
			]
		}
	],
	"nodes":[
		{
			"mesh":0,
			"name":"Viking_Room",
			"rotation":[
				0.7071068286895752,
				0,
				0,
				0.7071068286895752
			]
		}
	],
	"meshes":[
		{
			"name":"Viking_Room",
			"primitives":[
				{
					"attributes":{
						"POSITION":0,
						"NORMAL":1,
						"TEXCOORD_0":2
					},
					"indices":3
				}
			]
		}
	],
	"accessors":[
		{
			"bufferView":0,
			"componentType":5126,
			"count":4676,
			"max":[
				0.5853449702262878,
				0.7395349740982056,
				0.10764700174331665
			],
			"min":[
				-0.7419049739837646,
				-0.7210429906845093,
				-0.9248819947242737
			],
			"type":"VEC3"
		},
		{
			"bufferView":1,
			"componentType":5126,
			"count":4676,
			"type":"VEC3"
		},
		{
			"bufferView":2,
			"componentType":5126,
			"count":4676,
			"type":"VEC2"
		},
		{
			"bufferView":3,
			"componentType":5123,
			"count":11484,
			"type":"SCALAR"
		}
	],
	"bufferViews":[
		{
			"buffer":0,
			"byteLength":56112,
			"byteOffset":0,
			"target":34962
		},
		{
			"buffer":0,
			"byteLength":56112,
			"byteOffset":56112,
			"target":34962
		},
		{
			"buffer":0,
			"byteLength":37408,
			"byteOffset":112224,
			"target":34962
		},
		{
			"buffer":0,
			"byteLength":22968,
			"byteOffset":149632,
			"target":34963
		}
	],
	"buffers":[
		{
			"byteLength":172600,
			"uri":"Viking_Room.bin"
		}
	]
}
