{
	"asset":{
		"generator":"Khronos glTF Blender I/O v5.1.19",
		"version":"2.0"
	},
	"scene":0,
	"scenes":[
		{
			"name":"Scene",
			"nodes":[
				0
			]
		}
	],
	"nodes":[
		{
			"mesh":0,
			"name":"Cube"
		}
	],
	"meshes":[
		{
			"name":"Cube",
			"primitives":[
				{
					"attributes":{
						"POSITION":0,
						"NORMAL":1,
						"TEXCOORD_0":2,
						"TEXCOORD_1":3
					},
					"indices":4
				},
				{
					"attributes":{
						"POSITION":5,
						"NORMAL":6,
						"TEXCOORD_0":7,
						"TEXCOORD_1":8
					},
					"indices":9
				}
			]
		}
	],
	"accessors":[
		{
			"bufferView":0,
			"componentType":5126,
			"count":32,
			"max":[
				3.0723016262054443,
				3.0723016262054443,
				3.3383429050445557
			],
			"min":[
				-3.0723016262054443,
				-3.0723016262054443,
				-3.0723016262054443
			],
			"type":"VEC3"
		},
		{
			"bufferView":1,
			"componentType":5126,
			"count":32,
			"type":"VEC3"
		},
		{
			"bufferView":2,
			"componentType":5126,
			"count":32,
			"type":"VEC2"
		},
		{
			"bufferView":3,
			"componentType":5126,
			"count":32,
			"type":"VEC2"
		},
		{
			"bufferView":4,
			"componentType":5123,
			"count":54,
			"type":"SCALAR"
		},
		{
			"bufferView":5,
			"componentType":5126,
			"count":4,
			"max":[
				2.0710079669952393,
				2.0710079669952393,
				3.3383429050445557
			],
			"min":[
				-2.0710079669952393,
				-2.0710079669952393,
				3.3383429050445557
			],
			"type":"VEC3"
		},
		{
			"bufferView":6,
			"componentType":5126,
			"count":4,
			"type":"VEC3"
		},
		{
			"bufferView":7,
			"componentType":5126,
			"count":4,
			"type":"VEC2"
		},
		{
			"bufferView":8,
			"componentType":5126,
			"count":4,
			"type":"VEC2"
		},
		{
			"bufferView":9,
			"componentType":5123,
			"count":6,
			"type":"SCALAR"
		}
	],
	"bufferViews":[
		{
			"buffer":0,
			"byteLength":384,
			"byteOffset":0,
			"target":34962
		},
		{
			"buffer":0,
			"byteLength":384,
			"byteOffset":384,
			"target":34962
		},
		{
			"buffer":0,
			"byteLength":256,
			"byteOffset":768,
			"target":34962
		},
		{
			"buffer":0,
			"byteLength":256,
			"byteOffset":1024,
			"target":34962
		},
		{
			"buffer":0,
			"byteLength":108,
			"byteOffset":1280,
			"target":34963
		},
		{
			"buffer":0,
			"byteLength":48,
			"byteOffset":1388,
			"target":34962
		},
		{
			"buffer":0,
			"byteLength":48,
			"byteOffset":1436,
			"target":34962
		},
		{
			"buffer":0,
			"byteLength":32,
			"byteOffset":1484,
			"target":34962
		},
		{
			"buffer":0,
			"byteLength":32,
			"byteOffset":1516,
			"target":34962
		},
		{
			"buffer":0,
			"byteLength":12,
			"byteOffset":1548,
			"target":34963
		}
	],
	"buffers":[
		{
			"byteLength":1560,
			"uri":"Untitled.bin"
		}
	]
}
